<svg width="201" height="70" viewBox="0 0 201 70" fill="none" xmlns="http://www.w3.org/2000/svg">
<g clip-path="url(#clip0_44_713)">
<path fill-rule="evenodd" clip-rule="evenodd" d="M124.374 57.0257C112.755 65.4881 95.9137 69.993 81.4098 69.993C61.079 69.993 42.7771 62.5772 28.9261 50.2267C27.8379 49.2564 28.8067 47.9326 30.1195 48.6812C45.0657 57.2683 63.5501 62.4386 82.6383 62.4386C95.5135 62.4386 109.673 59.798 122.696 54.3435C124.662 53.5188 126.305 55.6188 124.388 57.0257H124.374Z" fill="#F8981D"/>
<path fill-rule="evenodd" clip-rule="evenodd" d="M129.204 51.5781C127.716 49.6999 119.382 50.6841 115.634 51.1276C114.496 51.2593 114.321 50.2821 115.346 49.5752C121.994 44.9663 132.897 46.2969 134.16 47.8356C135.438 49.395 133.823 60.1791 127.596 65.3286C126.634 66.1187 125.729 65.696 126.15 64.6494C127.554 61.191 130.692 53.4494 129.204 51.5712V51.5781Z" fill="#F8981D"/>
<path fill-rule="evenodd" clip-rule="evenodd" d="M115.901 17.0008V12.5166C115.901 11.8374 116.427 11.38 117.052 11.38H137.397C138.05 11.38 138.569 11.8444 138.569 12.5097V16.3493C138.569 16.9939 138.015 17.8325 137.039 19.1701L126.501 34.0226C130.412 33.9325 134.554 34.5077 138.106 36.483C138.906 36.9265 139.124 37.585 139.187 38.2295V43.0117C139.187 43.6701 138.457 44.4325 137.692 44.0374C131.43 40.8008 123.118 40.4473 116.196 44.079C115.486 44.4533 114.749 43.6978 114.749 43.0394V38.4929C114.749 37.7652 114.763 36.5246 115.508 35.4157L127.716 18.1236H117.087C116.434 18.1236 115.915 17.6661 115.915 16.9939L115.901 17.0008ZM41.6962 44.9869H35.5043C34.9146 44.9523 34.4442 44.5087 34.3951 43.9543V12.5929C34.3951 11.9622 34.9357 11.4632 35.5956 11.4632H41.3592C41.963 11.4909 42.4474 11.9414 42.4825 12.5166V16.6127H42.6018C44.1042 12.6553 46.9333 10.8048 50.7454 10.8048C54.5574 10.8048 57.0426 12.6553 58.7766 16.6127C60.2789 12.6553 63.6837 10.8048 67.3273 10.8048C69.9248 10.8048 72.761 11.8582 74.488 14.2355C76.4537 16.876 76.0465 20.7018 76.0465 24.0701V43.8572C76.0465 44.481 75.5059 44.9869 74.846 44.9869H68.6611C68.0434 44.9454 67.5519 44.4602 67.5519 43.8642V27.2374C67.5519 25.9206 67.6643 22.6147 67.3764 21.3671C66.9131 19.2533 65.5301 18.6642 63.7399 18.6642C62.2376 18.6642 60.6791 19.6553 60.0402 21.2355C59.4014 22.8226 59.4646 25.4562 59.4646 27.2374V43.8572C59.4646 44.481 58.931 44.9869 58.2711 44.9869H52.0862C51.4684 44.9454 50.977 44.4602 50.977 43.8642V27.2374C50.977 23.7374 51.5457 18.5949 47.158 18.5949C42.7703 18.5949 42.8826 23.6127 42.8826 27.2374V43.8572C42.8826 44.481 42.3491 44.9869 41.6892 44.9869H41.6962ZM156.085 10.8048C165.267 10.8048 170.238 18.5949 170.238 28.4919C170.238 38.3889 164.748 45.6523 156.085 45.6523C147.422 45.6523 142.164 37.8622 142.164 28.1661C142.164 18.4701 147.134 10.8117 156.085 10.8117V10.8048ZM156.141 17.2087C151.578 17.2087 151.29 23.3424 151.29 27.1751C151.29 31.0077 151.234 39.1859 156.085 39.1859C160.936 39.1859 161.111 32.5879 161.111 28.5612C161.111 25.9206 160.999 22.7533 160.185 20.2444C159.49 18.0681 158.107 17.2087 156.141 17.2087ZM182.151 44.9869H175.987C175.37 44.9454 174.878 44.4602 174.878 43.8642V12.4889C174.92 11.9137 175.433 11.4632 176.058 11.4632H181.8C182.341 11.4909 182.783 11.8513 182.902 12.3434V17.1394H183.022C184.756 12.8493 187.178 10.8048 191.453 10.8048C194.226 10.8048 196.943 11.7959 198.677 14.4988C200.292 17.0077 200.292 21.2285 200.292 24.2642V43.9958C200.221 44.5503 199.716 44.9869 199.105 44.9869H192.899C192.324 44.9523 191.867 44.5364 191.797 43.9958V26.9671C191.797 23.5364 192.204 18.5186 187.929 18.5186C186.426 18.5186 185.036 19.5097 184.348 21.0275C183.485 22.9404 183.366 24.8533 183.366 26.9671V43.8503C183.352 44.4741 182.818 44.98 182.158 44.98L182.151 44.9869ZM99.6838 30.0097C99.6838 32.3939 99.74 34.3761 98.5255 36.4899C97.5426 38.2087 95.9771 39.2691 94.2431 39.2691C91.8702 39.2691 90.4802 37.481 90.4802 34.8404C90.4802 29.6355 95.2119 28.6929 99.6838 28.6929V30.0166V30.0097ZM105.925 44.9038C105.518 45.2642 104.928 45.2919 104.465 45.0493C102.408 43.3652 102.043 42.582 100.919 40.981C97.5215 44.3978 95.1136 45.4236 90.7119 45.4236C85.5028 45.4236 81.4451 42.2493 81.4451 35.9008C81.4451 30.9384 84.169 27.5701 88.0442 25.9137C91.3998 24.4582 96.0894 24.1949 99.6838 23.7998V23.0097C99.6838 21.5543 99.8031 19.8355 98.9326 18.581C98.1814 17.4582 96.7353 16.9939 95.4576 16.9939C93.0988 16.9939 90.9997 18.1859 90.4802 20.6602C90.3749 21.2077 89.9677 21.7553 89.4061 21.783L83.4108 21.1454C82.9053 21.0345 82.3437 20.6325 82.4841 19.8701C83.8601 12.683 90.4381 10.5137 96.3211 10.5137C99.3328 10.5137 103.271 11.3038 105.644 13.5562C108.656 16.3355 108.368 20.0364 108.368 24.0701V33.586C108.368 36.4483 109.575 37.7028 110.706 39.2483C111.099 39.8028 111.19 40.4681 110.685 40.8701C109.421 41.9166 107.174 43.8434 105.939 44.9315L105.925 44.9176V44.9038ZM18.5503 30.0097C18.5503 32.3939 18.6065 34.3761 17.392 36.4899C16.4091 38.2087 14.8436 39.2691 13.1096 39.2691C10.7367 39.2691 9.34671 37.481 9.34671 34.8404C9.34671 29.6355 14.0784 28.6929 18.5503 28.6929V30.0166V30.0097ZM24.7913 44.9038C24.3842 45.2642 23.7874 45.2919 23.3311 45.0493C21.2742 43.3652 20.9091 42.582 19.7859 40.981C16.3881 44.3978 13.9801 45.4236 9.5854 45.4236C4.37635 45.4236 0.318619 42.2493 0.318619 35.9008C0.318619 30.9384 3.04249 27.5701 6.91769 25.9137C10.2734 24.4582 14.9629 24.1949 18.5573 23.7998V23.0097C18.5573 21.5543 18.6697 19.8355 17.8062 18.581C17.055 17.4582 15.6088 16.9939 14.3311 16.9939C11.9723 16.9939 9.87323 18.1859 9.35373 20.6602C9.24843 21.2077 8.84125 21.7553 8.27963 21.783L2.2843 21.1454C1.77884 21.0345 1.21722 20.6325 1.35762 19.8701C2.7336 12.683 9.30459 10.5137 15.1946 10.5137C18.2063 10.5137 22.1447 11.3038 24.5176 13.5562C27.5293 16.3355 27.2414 20.0364 27.2414 24.0701V33.586C27.2414 36.4483 28.4489 37.7028 29.5792 39.2483C29.9723 39.8028 30.0636 40.4681 29.5581 40.8701C28.2945 41.9166 26.048 43.8434 24.8124 44.9315L24.7984 44.9176L24.7913 44.9038Z" fill="#231F20"/>
</g>
<defs>
<clipPath id="clip0_44_713">
<rect width="200" height="70" fill="white" transform="translate(0.333328)"/>
</clipPath>
</defs>
</svg>
