<svg width="114" height="114" viewBox="0 0 114 114" fill="none" xmlns="http://www.w3.org/2000/svg">
<path d="M106.17 1.00034C104.596 1.00205 103.071 1.54644 101.852 2.5417C100.633 3.53696 99.795 4.92219 99.4785 6.46373H78.4157C78.2363 6.4637 78.0587 6.49903 77.893 6.56769C77.7273 6.63635 77.5767 6.73697 77.4499 6.86385L64.6665 19.6473C64.4112 19.9036 64.2681 20.2507 64.2684 20.6124C64.2688 20.9742 64.4126 21.321 64.6684 21.5768C64.9242 21.8326 65.271 21.9765 65.6328 21.9768C65.9945 21.9772 66.3417 21.834 66.5979 21.5787L78.9813 9.19542H99.4785C99.7369 10.4615 100.349 11.6284 101.244 12.5604C102.139 13.4924 103.281 14.1513 104.535 14.4606C105.79 14.7699 107.107 14.7169 108.332 14.3078C109.558 13.8986 110.643 13.1501 111.46 12.1492C112.277 11.1483 112.794 9.93601 112.95 8.65321C113.105 7.37042 112.894 6.06974 112.34 4.90226C111.786 3.73478 110.912 2.74841 109.82 2.05773C108.728 1.36704 107.462 1.00037 106.17 1.00034ZM106.17 11.9271C105.36 11.9271 104.568 11.6868 103.894 11.2366C103.22 10.7863 102.695 10.1464 102.384 9.39766C102.074 8.64893 101.993 7.82507 102.151 7.03022C102.309 6.23537 102.7 5.50523 103.273 4.93218C103.846 4.35912 104.576 3.96889 105.371 3.81078C106.166 3.65267 106.989 3.73378 107.738 4.04391C108.487 4.35404 109.127 4.87926 109.577 5.55309C110.027 6.22692 110.268 7.01911 110.268 7.82953C110.266 8.91562 109.833 9.95663 109.065 10.7246C108.297 11.4926 107.256 11.925 106.17 11.9271ZM74.7556 78.4001V57.9124C74.7557 57.6584 74.6848 57.4094 74.5509 57.1935C74.4171 56.9776 74.2256 56.8034 73.998 56.6906L69.5965 54.507L74.0007 52.3049C74.2276 52.1915 74.4184 52.0171 74.5517 51.8013C74.6851 51.5855 74.7556 51.3368 74.7556 51.0832V30.5955C74.7557 30.3418 74.6851 30.0932 74.5517 29.8773C74.4184 29.6615 74.2276 29.4871 74.0007 29.3736L57.6106 21.1785C57.4209 21.0838 57.2117 21.0345 56.9997 21.0345C56.7876 21.0345 56.5785 21.0838 56.3888 21.1785L39.9986 29.3736C39.7717 29.4871 39.5809 29.6615 39.4476 29.8773C39.3143 30.0932 39.2437 30.3418 39.2437 30.5955V51.0832C39.2437 51.3368 39.3143 51.5855 39.4476 51.8013C39.581 52.0171 39.7718 52.1915 39.9986 52.3049L44.4029 54.507L40.0013 56.6906C39.7737 56.8035 39.5822 56.9776 39.4484 57.1935C39.3145 57.4094 39.2436 57.6584 39.2437 57.9124V78.4001C39.2437 78.6538 39.3143 78.9024 39.4476 79.1182C39.581 79.334 39.7718 79.5083 39.9986 79.6218L56.3888 87.8169C56.5785 87.9116 56.7876 87.961 56.9997 87.961C57.2117 87.961 57.4209 87.9116 57.6106 87.8169L73.998 79.6218C74.2255 79.509 74.4171 79.3348 74.5509 79.1189C74.6848 78.9031 74.7557 78.6541 74.7556 78.4001ZM72.024 50.2402L58.3656 57.0694V39.6334L72.024 32.8054V50.2402ZM56.9997 23.9263L70.3369 30.5949L56.9997 37.2646L43.6624 30.5949L56.9997 23.9263ZM41.9754 50.2402V32.8054L55.6339 39.6335V57.0694L41.9754 50.2402ZM55.6339 84.3863L41.9754 77.5571V60.1223L55.6339 66.9505V84.3863ZM56.9997 64.5816L43.6737 57.9174L47.462 56.0366L56.3888 60.5C56.5785 60.5947 56.7876 60.644 56.9997 60.644C57.2117 60.644 57.4209 60.5947 57.6106 60.5L66.5373 56.0366L70.3267 57.918L56.9997 64.5816ZM72.024 77.5571L58.3656 84.3863V66.9504L72.024 60.1212V77.5571ZM7.8292 14.6588C9.4029 14.6571 10.9279 14.1127 12.1469 13.1174C13.3659 12.1222 14.2044 10.737 14.5209 9.19542H35.0181L47.4014 21.5787C47.6577 21.8341 48.0048 21.9773 48.3666 21.977C48.7284 21.9767 49.0753 21.8328 49.3311 21.577C49.5869 21.3211 49.7308 20.9743 49.7311 20.6125C49.7314 20.2507 49.5882 19.9036 49.3328 19.6473L36.5493 6.86385C36.4226 6.73696 36.272 6.63635 36.1063 6.56769C35.9406 6.49903 35.763 6.46369 35.5837 6.46373H14.5209C14.2625 5.19761 13.6501 4.03078 12.755 3.09878C11.8599 2.16678 10.7188 1.50784 9.46413 1.19853C8.20948 0.889221 6.8928 0.942216 5.66706 1.35136C4.44132 1.76051 3.35681 2.50903 2.5395 3.50995C1.7222 4.51088 1.20564 5.72314 1.04983 7.00594C0.894019 8.28873 1.10535 9.58941 1.65927 10.7569C2.21319 11.9244 3.08699 12.9107 4.17914 13.6014C5.27129 14.2921 6.53698 14.6588 7.8292 14.6588ZM7.8292 3.73203C8.63962 3.73202 9.43184 3.97235 10.1057 4.42259C10.7795 4.87283 11.3047 5.51276 11.6149 6.26149C11.925 7.01022 12.0061 7.83408 11.848 8.62893C11.6899 9.42378 11.2997 10.1539 10.7266 10.727C10.1536 11.3 9.42345 11.6903 8.6286 11.8484C7.83375 12.0065 7.00989 11.9253 6.26116 11.6152C5.51243 11.3051 4.87246 10.7799 4.42222 10.106C3.97197 9.43218 3.73169 8.63995 3.7317 7.82953C3.73335 6.74331 4.16559 5.70207 4.93366 4.934C5.70174 4.16592 6.74298 3.73368 7.8292 3.73203ZM50.736 89.0867L35.0181 104.805H14.5209C14.1824 103.146 13.2403 101.673 11.8772 100.67C10.514 99.6669 8.82703 99.2057 7.14321 99.3758C5.45939 99.5459 3.8987 100.335 2.76373 101.591C1.62877 102.846 1.00038 104.478 1.00038 106.17C1.00038 107.863 1.62877 109.495 2.76373 110.75C3.8987 112.006 5.45939 112.795 7.14321 112.965C8.82703 113.135 10.514 112.674 11.8772 111.671C13.2403 110.668 14.1824 109.194 14.5209 107.536H35.5837C35.763 107.536 35.9406 107.501 36.1063 107.432C36.272 107.364 36.4226 107.263 36.5493 107.136L52.6674 91.0181C52.7942 90.8912 52.8948 90.7407 52.9634 90.575C53.0321 90.4093 53.0674 90.2317 53.0674 90.0524C53.0674 89.873 53.0321 89.6954 52.9634 89.5297C52.8948 89.3641 52.7942 89.2135 52.6674 89.0867C52.5406 88.9598 52.39 88.8593 52.2243 88.7906C52.0586 88.722 51.881 88.6867 51.7017 88.6867C51.5223 88.6867 51.3448 88.722 51.1791 88.7906C51.0134 88.8593 50.8628 88.9598 50.736 89.0867ZM7.8292 110.268C7.01878 110.268 6.22655 110.028 5.55271 109.577C4.87888 109.127 4.3537 108.487 4.04358 107.738C3.73345 106.99 3.65234 106.166 3.81045 105.371C3.96856 104.576 4.35879 103.846 4.93184 103.273C5.5049 102.7 6.23504 102.31 7.02989 102.152C7.82473 101.994 8.6486 102.075 9.39733 102.385C10.1461 102.695 10.786 103.22 11.2362 103.894C11.6865 104.568 11.9268 105.36 11.9268 106.17C11.9252 107.257 11.4929 108.298 10.7248 109.066C9.95673 109.834 8.91544 110.266 7.8292 110.268ZM106.17 99.3412C104.596 99.3429 103.071 99.8874 101.852 100.883C100.633 101.878 99.795 103.263 99.4785 104.805H78.9813L63.2634 89.0867C63.1366 88.9598 62.986 88.8592 62.8203 88.7905C62.6546 88.7218 62.4769 88.6865 62.2975 88.6864C62.1182 88.6864 61.9405 88.7217 61.7748 88.7904C61.6091 88.859 61.4585 88.9596 61.3317 89.0864C61.2048 89.2133 61.1042 89.3638 61.0356 89.5296C60.967 89.6953 60.9317 89.8729 60.9317 90.0523C60.9317 90.2317 60.9671 90.4093 61.0357 90.575C61.1044 90.7407 61.2051 90.8913 61.332 91.0181L77.4499 107.136C77.5767 107.263 77.7273 107.364 77.893 107.432C78.0587 107.501 78.2363 107.536 78.4157 107.536H99.4785C99.7369 108.802 100.349 109.969 101.244 110.901C102.139 111.833 103.281 112.492 104.535 112.801C105.79 113.111 107.107 113.058 108.332 112.649C109.558 112.239 110.643 111.491 111.46 110.49C112.277 109.489 112.794 108.277 112.95 106.994C113.105 105.711 112.894 104.411 112.34 103.243C111.786 102.076 110.912 101.089 109.82 100.399C108.728 99.7079 107.462 99.3412 106.17 99.3412ZM106.17 110.268C105.36 110.268 104.568 110.028 103.894 109.577C103.22 109.127 102.695 108.487 102.384 107.739C102.074 106.99 101.993 106.166 102.151 105.371C102.309 104.576 102.7 103.846 103.273 103.273C103.846 102.7 104.576 102.31 105.371 102.152C106.166 101.994 106.989 102.075 107.738 102.385C108.487 102.695 109.127 103.22 109.577 103.894C110.027 104.568 110.268 105.36 110.268 106.17C110.266 107.257 109.833 108.298 109.065 109.066C108.297 109.833 107.256 110.266 106.17 110.268Z" fill="white" stroke="#171717" stroke-width="2"/>
</svg>
