<svg width="16" height="16" viewBox="0 0 16 16" fill="none" xmlns="http://www.w3.org/2000/svg">
<path d="M12.931 8.59757L13.167 8.36157L13.4023 8.59757L13.167 8.83357L12.931 8.59757ZM2.93101 8.93091C2.8426 8.93091 2.75782 8.89579 2.69531 8.83327C2.6328 8.77076 2.59768 8.68598 2.59768 8.59757C2.59768 8.50917 2.6328 8.42438 2.69531 8.36187C2.75782 8.29936 2.8426 8.26424 2.93101 8.26424L2.93101 8.93091ZM9.16701 4.36157L13.167 8.36157L12.695 8.83357L8.69501 4.83357L9.16701 4.36157ZM13.167 8.83357L9.16701 12.8336L8.69501 12.3616L12.695 8.36157L13.167 8.83357ZM12.931 8.93091L2.93101 8.93091L2.93101 8.26424L12.931 8.26424L12.931 8.93091Z" fill="white"/>
</svg>
