<svg width="534" height="1179" viewBox="0 0 534 1179" fill="none" xmlns="http://www.w3.org/2000/svg">
<g clip-path="url(#clip0_44_665)">
<path d="M-75.3984 455.181L-75.582 455.507L-159.005 603.839L-158.89 603.969L-54.9702 722.283L-54.7866 721.957L28.6361 573.626L28.5214 573.495L-75.3984 455.181ZM-158.386 603.739L-75.3312 456.06L28.0174 573.725L-55.0374 721.404L-158.386 603.739Z" fill="#7AA6FF"/>
<path d="M28.7943 573.343L-104.074 594.736L-104.141 594.855L-187.723 743.469L-54.8542 722.076L-54.7874 721.957L28.7943 573.343ZM-103.773 595.201L27.8576 574.007L-55.1552 721.61L-186.786 742.804L-103.773 595.201Z" fill="#7AA6FF"/>
<path d="M28.2934 573.236L28.1097 573.561L-55.312 721.893L-55.1973 722.023L48.7215 840.337L48.9051 840.011L132.328 691.68L132.213 691.549L28.2934 573.236ZM-54.6933 721.793L28.3606 574.114L131.709 691.779L48.6543 839.458L-54.6933 721.793Z" fill="#7AA6FF"/>
<path d="M161.045 552.049L28.1762 573.442L28.1096 573.561L-55.4711 722.175L77.3974 700.782L77.4642 700.663L161.045 552.049ZM28.4773 573.908L160.108 552.714L77.0965 700.317L-54.5345 721.51L28.4773 573.908Z" fill="#7AA6FF"/>
<path d="M-43.5024 428.618L-43.6079 428.806L-91.5738 514.093L-91.5079 514.168L-31.756 582.196L-31.6504 582.009L16.3154 496.721L16.2495 496.647L-43.5024 428.618ZM-91.2179 514.036L-43.4637 429.124L15.9596 496.779L-31.7947 581.691L-91.2179 514.036Z" fill="#7AA6FF"/>
<path d="M-1.20917 654.361L-77.6058 666.661L-77.6443 666.73L-125.702 752.18L-49.3054 739.879L-49.2669 739.811L-1.20917 654.361ZM-77.4329 666.929L-1.74774 654.743L-49.4783 739.611L-125.163 751.797L-77.4329 666.929Z" fill="#7AA6FF"/>
<path d="M43.1526 403.329L43.0298 403.547L-12.7583 502.742L-12.6815 502.829L56.8137 581.95L56.9364 581.732L112.724 482.537L112.648 482.45L43.1526 403.329ZM-12.3444 502.675L43.1976 403.917L112.311 482.604L56.7688 581.362L-12.3444 502.675Z" fill="#7AA6FF"/>
<path d="M112.494 482.278L112.372 482.495L56.5843 581.69L56.661 581.777L126.155 660.898L126.278 660.68L182.066 561.486L181.99 561.399L112.494 482.278ZM56.9982 581.623L112.539 482.865L181.652 561.552L126.11 660.311L56.9982 581.623Z" fill="#7AA6FF"/>
<path d="M200.935 468.038L200.813 468.256L145.025 567.45L145.102 567.537L214.597 646.658L214.72 646.44L270.507 547.246L270.43 547.159L200.935 468.038ZM145.439 567.384L200.98 468.625L270.093 547.312L214.552 646.071L145.439 567.384Z" fill="#7AA6FF"/>
<path d="M111.061 572.632L110.938 572.85L55.1507 672.045L55.2273 672.132L124.723 751.253L124.845 751.035L180.633 651.84L180.556 651.753L111.061 572.632ZM55.5646 671.978L111.106 573.22L180.219 651.907L124.678 750.665L55.5646 671.978Z" fill="#7AA6FF"/>
<path d="M233.722 553.07L144.867 567.376L145.076 567.614L214.474 646.625L303.329 632.319L303.12 632.081L233.722 553.07ZM145.546 567.611L233.572 553.438L302.65 632.084L214.623 646.257L145.546 567.611Z" fill="#7AA6FF"/>
<path d="M289.687 453.946L200.832 468.252L200.787 468.332L144.893 567.716L233.748 553.409L233.792 553.33L289.687 453.946ZM201.033 468.564L289.06 454.39L233.546 553.098L145.52 567.271L201.033 468.564Z" fill="#7AA6FF"/>
</g>
<defs>
<clipPath id="clip0_44_665">
<rect width="825.002" height="845.99" fill="white" transform="matrix(-0.766714 -0.641988 -0.641988 0.766714 533.574 529.963)"/>
</clipPath>
</defs>
</svg>
