<svg width="511" height="524" viewBox="0 0 511 524" fill="none" xmlns="http://www.w3.org/2000/svg">
<g clip-path="url(#clip0_44_607)">
<path d="M13.8087 334.338L13.8425 334.519L29.3199 417.33L29.4048 417.343L106.448 429.223L106.414 429.041L90.9367 346.23L90.8517 346.217L13.8087 334.338ZM29.5231 417.096L14.1134 334.65L90.7335 346.464L106.143 428.911L29.5231 417.096Z" fill="#7AA6FF"/>
<path d="M90.907 346.072L47.276 396.418L47.2886 396.485L62.7955 479.453L106.427 429.107L106.414 429.041L90.907 346.072ZM47.5383 396.499L90.7629 346.622L106.164 429.026L62.9398 478.903L47.5383 396.499Z" fill="#7AA6FF"/>
<path d="M106.143 428.91L106.177 429.092L121.655 511.903L121.74 511.916L198.783 523.795L198.749 523.613L183.271 440.803L183.186 440.79L106.143 428.91ZM121.858 511.669L106.448 429.222L183.068 441.037L198.478 523.483L121.858 511.669Z" fill="#7AA6FF"/>
<path d="M106.251 428.926L62.6196 479.272L62.8512 479.308L139.787 491.171L183.418 440.825L183.186 440.79L106.251 428.926ZM63.116 479.083L106.341 429.206L182.921 441.015L139.697 490.891L63.116 479.083Z" fill="#7AA6FF"/>
<path d="M57.3436 284.242L13.7126 334.588L13.9441 334.624L90.8798 346.487L134.511 296.141L134.279 296.106L57.3436 284.242ZM14.2091 334.399L57.4337 284.522L134.014 296.33L90.7895 346.208L14.2091 334.399Z" fill="#7AA6FF"/>
<path d="M90.6827 346.191L90.7165 346.373L106.194 429.183L106.279 429.196L183.322 441.076L183.288 440.894L167.811 358.084L167.726 358.071L90.6827 346.191ZM106.397 428.949L90.9875 346.503L167.607 358.318L183.017 440.764L106.397 428.949Z" fill="#7AA6FF"/>
<path d="M134.335 295.961L90.7039 346.307L90.7165 346.373L106.224 429.341L149.855 378.996L149.842 378.929L134.335 295.961ZM90.9661 346.388L134.191 296.511L149.593 378.915L106.368 428.791L90.9661 346.388Z" fill="#7AA6FF"/>
<path d="M132.808 398.154L132.842 398.336L148.32 481.146L148.404 481.159L225.448 493.039L225.414 492.857L209.936 410.047L209.851 410.034L132.808 398.154ZM148.523 480.912L133.113 398.466L209.733 410.281L225.143 492.727L148.523 480.912Z" fill="#7AA6FF"/>
<path d="M177.334 231.49L177.373 231.702L195.374 328.016L195.473 328.031L285.079 341.848L285.04 341.637L267.039 245.322L266.94 245.307L177.334 231.49ZM195.611 327.744L177.688 231.853L266.802 245.595L284.725 341.485L195.611 327.744Z" fill="#7AA6FF"/>
<path d="M267.004 245.139L216.259 303.694L216.273 303.771L234.309 400.269L285.055 341.714L285.04 341.637L267.004 245.139ZM216.564 303.789L266.837 245.779L284.75 341.62L234.477 399.63L216.564 303.789Z" fill="#7AA6FF"/>
<path d="M266.743 245.277L266.783 245.488L284.784 341.802L284.883 341.817L374.489 355.635L374.449 355.423L356.448 259.109L356.349 259.094L266.743 245.277ZM285.021 341.53L267.098 245.64L356.212 259.381L374.134 355.272L285.021 341.53Z" fill="#7AA6FF"/>
<path d="M317.514 186.856L266.768 245.411L266.782 245.489L284.818 341.986L335.564 283.43L335.55 283.353L317.514 186.856ZM267.073 245.506L317.346 187.496L335.259 283.336L284.986 341.346L267.073 245.506Z" fill="#7AA6FF"/>
<path d="M164.337 298.425C164.616 298.103 164.801 297.698 164.868 297.261C164.936 296.824 164.882 296.375 164.715 295.971C164.548 295.567 164.274 295.226 163.928 294.99C163.583 294.755 163.181 294.636 162.773 294.649C162.366 294.662 161.972 294.806 161.64 295.062C161.308 295.319 161.054 295.677 160.91 296.091C160.765 296.505 160.737 296.956 160.829 297.388C160.921 297.82 161.128 298.212 161.425 298.516C161.622 298.718 161.853 298.876 162.106 298.981C162.36 299.085 162.629 299.135 162.899 299.126C163.17 299.118 163.436 299.051 163.683 298.931C163.929 298.811 164.152 298.639 164.337 298.425Z" fill="#7AA6FF"/>
<path d="M152.704 241.407L123.526 275.075L123.535 275.119L133.905 330.603L163.083 296.935L163.074 296.891L152.704 241.407ZM123.702 275.129L152.608 241.774L162.907 296.881L134.001 330.236L123.702 275.129Z" fill="#7AA6FF"/>
<path d="M162.965 296.815L133.787 330.483L133.942 330.507L185.392 338.44L214.57 304.772L214.415 304.748L162.965 296.815ZM134.12 330.356L163.025 297.002L214.238 304.898L185.332 338.253L134.12 330.356Z" fill="#7AA6FF"/>
<path d="M130.259 200.059L101.081 233.727L101.236 233.751L152.686 241.684L181.864 208.016L181.709 207.992L130.259 200.059ZM101.413 233.6L130.319 200.246L181.532 208.143L152.626 241.497L101.413 233.6Z" fill="#7AA6FF"/>
<path d="M181.746 207.895L152.568 241.564L152.577 241.608L162.947 297.092L192.125 263.424L192.116 263.379L181.746 207.895ZM152.744 241.618L181.65 208.263L191.949 263.37L163.043 296.724L152.744 241.618Z" fill="#7AA6FF"/>
<path d="M181.596 207.975L181.619 208.097L191.969 263.475L192.026 263.484L243.548 271.428L243.525 271.306L233.174 215.928L233.118 215.919L181.596 207.975ZM192.105 263.318L181.8 208.184L233.038 216.085L243.344 271.219L192.105 263.318Z" fill="#7AA6FF"/>
<path d="M283.706 291.993L254.528 325.661L254.537 325.706L264.907 381.19L294.084 347.522L294.076 347.477L283.706 291.993ZM254.704 325.716L283.609 292.361L293.909 347.468L265.003 380.822L254.704 325.716Z" fill="#7AA6FF"/>
<path d="M210.501 164.781L210.527 164.923L222.565 229.332L222.631 229.342L282.554 238.582L282.528 238.44L270.49 174.031L270.424 174.021L210.501 164.781ZM222.723 229.15L210.738 165.024L270.332 174.214L282.317 238.339L222.723 229.15Z" fill="#7AA6FF"/>
<path d="M270.293 174.001L270.319 174.143L282.357 238.552L282.423 238.562L342.346 247.802L342.32 247.66L330.282 183.251L330.216 183.241L270.293 174.001ZM282.515 238.369L270.53 174.244L330.124 183.434L342.109 247.559L282.515 238.369Z" fill="#7AA6FF"/>
<path d="M304.07 135.025L304.097 135.167L316.135 199.576L316.201 199.586L376.124 208.825L376.098 208.684L364.059 144.275L363.993 144.265L304.07 135.025ZM316.293 199.393L304.307 135.268L363.901 144.458L375.887 208.583L316.293 199.393Z" fill="#7AA6FF"/>
<path d="M303.057 214.417L303.083 214.559L315.122 278.968L315.188 278.978L375.111 288.217L375.085 288.076L363.046 223.667L362.98 223.657L303.057 214.417ZM315.28 278.785L303.294 214.66L362.888 223.85L374.874 287.975L315.28 278.785Z" fill="#7AA6FF"/>
<path d="M349.974 160.443L316.038 199.601L316.218 199.629L376.058 208.856L409.993 169.698L409.813 169.67L349.974 160.443ZM316.424 199.454L350.044 160.661L409.607 169.845L375.987 208.639L316.424 199.454Z" fill="#7AA6FF"/>
<path d="M338.04 96L304.104 135.158L304.114 135.21L316.175 199.742L350.11 160.583L350.101 160.532L338.04 96ZM304.308 135.221L337.927 96.4278L349.907 160.52L316.287 199.314L304.308 135.221Z" fill="#7AA6FF"/>
<path d="M368.049 128.638L317.303 187.193L317.318 187.271L335.353 283.768L386.099 225.213L386.085 225.135L368.049 128.638Z" fill="#0249D9"/>
<path d="M177.785 245.905L134.154 296.251L134.166 296.317L149.673 379.286L193.304 328.94L193.292 328.873L177.785 245.905Z" fill="#0249D9"/>
<path d="M210.803 174.421L181.625 208.09L181.633 208.134L192.004 263.618L221.181 229.95L221.173 229.906L210.803 174.421Z" fill="#0249D9"/>
<path d="M32.8565 420.952C33.5144 420.193 33.9501 419.239 34.1086 418.209C34.267 417.18 34.141 416.122 33.7466 415.17C33.3521 414.217 32.7069 413.413 31.8925 412.859C31.0781 412.304 30.1311 412.024 29.1713 412.054C28.2115 412.085 27.2819 412.424 26.5001 413.028C25.7184 413.633 25.1195 414.477 24.7793 415.452C24.4392 416.428 24.3729 417.492 24.589 418.509C24.805 419.527 25.2937 420.452 25.9931 421.169C26.4576 421.644 27.0035 422.016 27.5998 422.263C28.1961 422.509 28.831 422.626 29.4683 422.606C30.1056 422.586 30.7329 422.429 31.3142 422.146C31.8956 421.862 32.4196 421.456 32.8565 420.952Z" fill="#0249D9"/>
<path d="M93.4152 343.59C94.8157 345.025 94.8831 347.42 93.5657 348.94C92.2484 350.46 90.0452 350.53 88.6447 349.095C87.2442 347.661 87.1768 345.266 88.4941 343.745C89.8115 342.225 92.0147 342.156 93.4152 343.59Z" fill="#0249D9"/>
<path d="M108.169 426.6C109.408 427.87 109.468 429.989 108.302 431.334C107.137 432.68 105.187 432.741 103.948 431.472C102.708 430.202 102.649 428.083 103.814 426.738C104.98 425.392 106.93 425.331 108.169 426.6Z" fill="#0249D9"/>
<path d="M151.92 376.596C153.16 377.865 153.219 379.984 152.054 381.33C150.888 382.675 148.938 382.736 147.699 381.467C146.459 380.197 146.4 378.078 147.565 376.733C148.731 375.388 150.681 375.326 151.92 376.596Z" fill="#0249D9"/>
<path d="M199.261 491.916C196.866 496.429 191.555 497.97 187.4 495.359C183.245 492.748 181.818 486.972 184.214 482.46C186.609 477.947 191.92 476.406 196.075 479.017C200.23 481.629 201.657 487.404 199.261 491.916Z" fill="#0249D9"/>
<path d="M183.571 411.368C180.788 415.843 175.192 417.012 171.071 413.98C166.95 410.948 165.866 404.863 168.648 400.388C171.431 395.914 177.027 394.744 181.148 397.777C185.269 400.809 186.354 406.894 183.571 411.368Z" fill="#0249D9"/>
<path d="M270.645 238.038C273.629 241.095 273.773 246.2 270.965 249.44C268.158 252.68 263.462 252.828 260.477 249.77C257.492 246.713 257.348 241.608 260.156 238.368C262.964 235.128 267.66 234.98 270.645 238.038Z" fill="#0249D9"/>
<path d="M289.075 337.238C291.421 339.641 291.534 343.653 289.327 346.199C287.12 348.745 283.43 348.862 281.084 346.459C278.738 344.056 278.625 340.044 280.832 337.497C283.038 334.951 286.729 334.835 289.075 337.238Z" fill="#0249D9"/>
<path d="M154.381 239.747C155.318 240.706 155.363 242.308 154.482 243.325C153.601 244.341 152.128 244.388 151.191 243.428C150.255 242.469 150.209 240.867 151.09 239.851C151.971 238.834 153.445 238.788 154.381 239.747Z" fill="#0249D9"/>
<path d="M193.506 261.819C194.335 262.668 194.375 264.085 193.595 264.985C192.816 265.884 191.512 265.925 190.683 265.076C189.854 264.228 189.814 262.81 190.594 261.911C191.373 261.011 192.677 260.97 193.506 261.819Z" fill="#0249D9"/>
<path d="M285.853 289.632C287.231 291.043 287.297 293.4 286.001 294.895C284.705 296.391 282.537 296.459 281.159 295.048C279.781 293.636 279.715 291.28 281.011 289.784C282.307 288.289 284.475 288.221 285.853 289.632Z" fill="#0249D9"/>
<path d="M104.842 237.444C105.513 236.67 105.957 235.697 106.119 234.647C106.28 233.598 106.152 232.519 105.75 231.548C105.348 230.577 104.69 229.757 103.859 229.192C103.029 228.626 102.063 228.341 101.085 228.372C100.106 228.403 99.1584 228.748 98.3613 229.365C97.5642 229.982 96.9537 230.842 96.6068 231.836C96.26 232.831 96.1924 233.916 96.4127 234.953C96.633 235.991 97.1313 236.934 97.8445 237.665C98.318 238.15 98.8747 238.529 99.4826 238.78C100.091 239.032 100.738 239.15 101.388 239.13C102.038 239.109 102.677 238.95 103.27 238.661C103.862 238.372 104.397 237.958 104.842 237.444Z" fill="#0249D9"/>
<path d="M273.116 176.785C273.788 176.009 274.234 175.034 274.396 173.982C274.558 172.93 274.429 171.849 274.026 170.875C273.623 169.902 272.963 169.08 272.131 168.513C271.299 167.946 270.331 167.66 269.35 167.691C268.369 167.722 267.419 168.069 266.62 168.687C265.821 169.305 265.209 170.167 264.862 171.164C264.514 172.161 264.446 173.248 264.667 174.288C264.888 175.328 265.387 176.274 266.102 177.006C266.577 177.492 267.135 177.872 267.744 178.124C268.353 178.376 269.002 178.495 269.653 178.475C270.305 178.454 270.946 178.294 271.54 178.004C272.134 177.715 272.67 177.3 273.116 176.785Z" fill="#0249D9"/>
<path d="M284.94 233.569C286.936 235.614 287.032 239.028 285.154 241.194C283.276 243.361 280.136 243.46 278.14 241.415C276.144 239.371 276.048 235.957 277.925 233.79C279.803 231.624 282.943 231.525 284.94 233.569Z" fill="#0249D9"/>
<path d="M411.647 167.554C412.724 168.657 412.776 170.499 411.763 171.667C410.75 172.836 409.056 172.889 407.979 171.787C406.903 170.684 406.851 168.842 407.864 167.674C408.876 166.505 410.57 166.451 411.647 167.554Z" fill="#0249D9"/>
</g>
<defs>
<clipPath id="clip0_44_607">
<rect width="511" height="524" fill="white" transform="matrix(-1 0 0 1 511 0)"/>
</clipPath>
</defs>
</svg>
