<svg width="114" height="114" viewBox="0 0 114 114" fill="none" xmlns="http://www.w3.org/2000/svg">
<path d="M22.8536 10.5292C22.8535 10.7086 22.8888 10.8862 22.9574 11.052C23.026 11.2178 23.1266 11.3684 23.2535 11.4952C23.3803 11.6221 23.5309 11.7227 23.6967 11.7913C23.8624 11.8599 24.0401 11.8952 24.2195 11.8951H34.1913L40.8552 30.1713C40.9135 30.342 41.0057 30.499 41.1262 30.6332C41.2467 30.7673 41.393 30.8757 41.5564 30.9519C41.7199 31.0281 41.897 31.0706 42.0772 31.0767C42.2574 31.0828 42.437 31.0525 42.6052 30.9876C42.7738 30.9265 42.9288 30.8327 43.0612 30.7117C43.1936 30.5906 43.3007 30.4446 43.3765 30.282C43.4524 30.1195 43.4953 29.9436 43.503 29.7643C43.5108 29.5851 43.483 29.4062 43.4214 29.2377L36.4294 10.0623C36.3338 9.79877 36.1593 9.57112 35.9298 9.41028C35.7002 9.24944 35.4266 9.16324 35.1463 9.16337H24.2195C24.0401 9.16327 23.8624 9.19852 23.6967 9.26713C23.5309 9.33573 23.3803 9.43633 23.2535 9.56318C23.1266 9.69003 23.026 9.84063 22.9574 10.0064C22.8888 10.1721 22.8535 10.3498 22.8536 10.5292ZM91.1471 10.5292C91.1472 10.3498 91.1119 10.1721 91.0433 10.0064C90.9747 9.8406 90.8741 9.69001 90.7472 9.56316C90.6204 9.43631 90.4697 9.3357 90.304 9.2671C90.1382 9.1985 89.9606 9.16326 89.7812 9.16337H78.8544C78.5741 9.16326 78.3005 9.24947 78.0709 9.4103C77.8413 9.57114 77.6669 9.79878 77.5712 10.0623L70.5792 29.2377C70.5176 29.4062 70.4899 29.5851 70.4976 29.7643C70.5053 29.9436 70.5483 30.1195 70.6242 30.2821C70.7 30.4446 70.8072 30.5906 70.9396 30.7117C71.0719 30.8327 71.2269 30.9265 71.3955 30.9876C71.5637 31.0525 71.7433 31.0828 71.9235 31.0767C72.1037 31.0706 72.2809 31.0281 72.4443 30.9519C72.6077 30.8757 72.754 30.7673 72.8745 30.6332C72.995 30.499 73.0872 30.342 73.1456 30.1713L79.8094 11.8951H89.7812C89.9606 11.8952 90.1383 11.8599 90.304 11.7913C90.4698 11.7227 90.6204 11.6221 90.7473 11.4952C90.8741 11.3684 90.9747 11.2178 91.0433 11.052C91.1119 10.8863 91.1472 10.7086 91.1471 10.5292ZM43.4214 84.7305C43.483 84.562 43.5107 84.3831 43.503 84.2039C43.4953 84.0246 43.4524 83.8487 43.3765 83.6861C43.3007 83.5236 43.1936 83.3776 43.0612 83.2565C42.9288 83.1354 42.7739 83.0416 42.6052 82.9806C42.437 82.9156 42.2574 82.8853 42.0772 82.8915C41.897 82.8976 41.7199 82.94 41.5564 83.0163C41.393 83.0925 41.2467 83.2009 41.1262 83.335C41.0057 83.4692 40.9135 83.6262 40.8552 83.7969L34.1913 102.073H24.2195C23.8572 102.073 23.5098 102.217 23.2537 102.473C22.9975 102.729 22.8536 103.077 22.8536 103.439C22.8536 103.801 22.9975 104.149 23.2537 104.405C23.5098 104.661 23.8572 104.805 24.2195 104.805H35.1463C35.4266 104.805 35.7002 104.719 35.9298 104.558C36.1594 104.397 36.3338 104.169 36.4294 103.906L43.4214 84.7305ZM113 10.561C113 8.66998 112.439 6.82147 111.389 5.24917C110.338 3.67688 108.845 2.45142 107.098 1.72778C105.351 1.00414 103.428 0.814804 101.574 1.18372C99.719 1.55264 98.0154 2.46324 96.6783 3.80038C95.3412 5.13751 94.4306 6.84112 94.0617 8.69577C93.6928 10.5504 93.8821 12.4728 94.6058 14.2199C95.3294 15.9669 96.5549 17.4601 98.1272 18.5107C99.6995 19.5612 101.548 20.122 103.439 20.122C105.974 20.1189 108.404 19.1106 110.196 17.3182C111.989 15.5258 112.997 13.0957 113 10.561ZM110.268 10.561C110.268 11.9117 109.868 13.232 109.117 14.3551C108.367 15.4782 107.3 16.3535 106.052 16.8704C104.805 17.3873 103.431 17.5226 102.107 17.259C100.782 16.9955 99.5651 16.3451 98.61 15.39C97.6549 14.4349 97.0044 13.2181 96.7409 11.8933C96.4774 10.5685 96.6126 9.19541 97.1295 7.94752C97.6464 6.69964 98.5218 5.63306 99.6449 4.88265C100.768 4.13224 102.088 3.73172 103.439 3.73173C105.25 3.7334 106.986 4.45345 108.266 5.73381C109.547 7.01418 110.267 8.75025 110.268 10.561ZM1 10.561C0.999994 12.4519 1.56071 14.3005 2.61128 15.8728C3.66185 17.4451 5.15508 18.6705 6.90212 19.3942C8.64916 20.1178 10.5716 20.3072 12.4262 19.9382C14.2809 19.5693 15.9845 18.6587 17.3216 17.3216C18.6587 15.9845 19.5693 14.2809 19.9382 12.4262C20.3072 10.5716 20.1178 8.64918 19.3941 6.90214C18.6705 5.1551 17.445 3.66189 15.8727 2.61132C14.3004 1.56075 12.4519 1.00001 10.5609 1.00002C8.02617 1.00311 5.59611 2.01142 3.80375 3.80377C2.0114 5.59613 1.00309 8.02619 1 10.561ZM3.73171 10.561C3.73172 9.21026 4.13222 7.88988 4.88263 6.76682C5.63305 5.64375 6.69964 4.76845 7.94753 4.25157C9.19542 3.73469 10.5686 3.59945 11.8933 3.86296C13.2181 4.12648 14.4349 4.7769 15.39 5.73199C16.3451 6.68709 16.9955 7.90396 17.259 9.22871C17.5225 10.5535 17.3873 11.9266 16.8704 13.1745C16.3535 14.4224 15.4781 15.4889 14.3551 16.2393C13.232 16.9897 11.9116 17.3903 10.5609 17.3903C8.75022 17.3886 7.01412 16.6685 5.73375 15.3882C4.45338 14.1078 3.73336 12.3717 3.73171 10.561ZM113 103.439C113 101.548 112.439 99.6996 111.389 98.1273C110.338 96.5549 108.845 95.3295 107.098 94.6058C105.351 93.8822 103.428 93.6928 101.574 94.0617C99.7191 94.4306 98.0154 95.3412 96.6783 96.6784C95.3412 98.0155 94.4306 99.7191 94.0617 101.574C93.6928 103.428 93.8821 105.351 94.6058 107.098C95.3294 108.845 96.5549 110.338 98.1272 111.389C99.6995 112.439 101.548 113 103.439 113C105.974 112.997 108.404 111.989 110.196 110.196C111.989 108.404 112.997 105.974 113 103.439ZM110.268 103.439C110.268 104.79 109.868 106.11 109.117 107.233C108.367 108.356 107.3 109.232 106.052 109.748C104.804 110.265 103.431 110.401 102.107 110.137C100.782 109.874 99.565 109.223 98.6099 108.268C97.6548 107.313 97.0044 106.096 96.7409 104.771C96.4774 103.447 96.6126 102.073 97.1295 100.826C97.6464 99.5777 98.5218 98.5111 99.6449 97.7607C100.768 97.0103 102.088 96.6098 103.439 96.6098C105.25 96.6114 106.986 97.3315 108.266 98.6119C109.547 99.8923 110.267 101.628 110.268 103.439ZM1 103.439C1.00001 105.33 1.56075 107.179 2.61133 108.751C3.66191 110.323 5.15512 111.549 6.90216 112.272C8.64921 112.996 10.5716 113.185 12.4263 112.816C14.2809 112.447 15.9845 111.537 17.3216 110.2C18.6588 108.862 19.5693 107.159 19.9382 105.304C20.3072 103.45 20.1178 101.527 19.3941 99.7801C18.6705 98.0331 17.445 96.5399 15.8727 95.4893C14.3004 94.4388 12.4519 93.878 10.5609 93.878C8.02616 93.8811 5.59607 94.8895 3.80371 96.6818C2.01135 98.4742 1.00306 100.904 1 103.439ZM3.73171 103.439C3.7317 102.088 4.13223 100.768 4.88263 99.6449C5.63304 98.5218 6.6996 97.6465 7.94748 97.1296C9.19537 96.6127 10.5685 96.4775 11.8933 96.741C13.218 97.0045 14.4349 97.6549 15.39 98.61C16.3451 99.5651 16.9955 100.782 17.259 102.107C17.5225 103.431 17.3873 104.805 16.8704 106.052C16.3535 107.3 15.4781 108.367 14.3551 109.117C13.232 109.868 11.9116 110.268 10.5609 110.268C8.75023 110.267 7.01416 109.547 5.7338 108.266C4.45343 106.986 3.73339 105.25 3.73171 103.439ZM91.1471 103.439C91.1472 103.26 91.1119 103.082 91.0433 102.916C90.9747 102.75 90.8741 102.6 90.7473 102.473C90.6204 102.346 90.4698 102.246 90.304 102.177C90.1383 102.108 89.9606 102.073 89.7812 102.073H79.8094L73.1456 83.7969C73.0872 83.6263 72.995 83.4692 72.8745 83.335C72.754 83.2009 72.6077 83.0925 72.4443 83.0163C72.2809 82.9401 72.1037 82.8976 71.9235 82.8915C71.7433 82.8853 71.5637 82.9156 71.3955 82.9806C71.2269 83.0416 71.0719 83.1354 70.9395 83.2565C70.8072 83.3776 70.7 83.5236 70.6242 83.6861C70.5483 83.8487 70.5053 84.0246 70.4976 84.2038C70.4899 84.3831 70.5176 84.562 70.5792 84.7305L77.5712 103.906C77.6668 104.169 77.8413 104.397 78.0709 104.558C78.3005 104.719 78.574 104.805 78.8544 104.805H89.7812C89.9606 104.805 90.1382 104.77 90.304 104.701C90.4697 104.633 90.6204 104.532 90.7472 104.405C90.8741 104.278 90.9747 104.128 91.0433 103.962C91.1119 103.796 91.1472 103.618 91.1471 103.439ZM57.5069 85.5828L84.824 74.6574C85.0777 74.5567 85.2952 74.382 85.4484 74.156C85.6015 73.93 85.6833 73.6632 85.6829 73.3902V40.6098C85.6833 40.3368 85.6015 40.07 85.4484 39.844C85.2952 39.618 85.0777 39.4433 84.824 39.3426L57.5069 28.4157C57.1821 28.2824 56.8178 28.2824 56.4931 28.4157L29.176 39.3426C28.9223 39.4433 28.7047 39.618 28.5516 39.844C28.3984 40.07 28.3167 40.3368 28.3171 40.6098V73.3902C28.3167 73.6632 28.3984 73.93 28.5516 74.156C28.7047 74.382 28.9223 74.5567 29.176 74.6574L56.4931 85.5828C56.8178 85.7162 57.1821 85.7162 57.5069 85.5828ZM31.0488 42.626L55.6342 52.4601V82.2994L31.0488 72.4645V42.626ZM80.64 40.6108L57 50.0667L33.36 40.6108L57 31.1528L80.64 40.6108ZM58.3658 52.4601L82.9511 42.626V72.4645L58.3658 82.2994V52.4601Z" fill="white" stroke="#171717" stroke-width="2"/>
</svg>
