<svg width="200" height="70" viewBox="0 0 200 70" fill="none" xmlns="http://www.w3.org/2000/svg">
<path d="M96.0838 63V56.236C92.9931 55.5267 90.4218 54.1713 88.3698 52.17C86.3178 50.1687 84.8611 47.3947 83.9998 43.848L91.8278 40.884C92.5371 43.5187 93.6011 45.4187 95.0198 46.584C96.4384 47.7493 98.2118 48.332 100.34 48.332C102.265 48.332 103.785 47.9773 104.9 47.268C106.014 46.5587 106.572 45.444 106.572 43.924C106.572 42.5053 105.989 41.2893 104.824 40.276C103.658 39.2627 101.1 38.1733 97.1478 37.008C92.9931 35.7413 90.0544 34.044 88.3318 31.916C86.6091 29.788 85.7478 27.2547 85.7478 24.316C85.7478 21.2253 86.7484 18.6413 88.7498 16.564C90.7511 14.4867 93.1958 13.1693 96.0838 12.612V6H103.304V12.612C106.04 13.22 108.307 14.3473 110.106 15.994C111.904 17.6407 113.234 19.7053 114.096 22.188L106.42 25.38C105.862 23.86 105.014 22.6693 103.874 21.808C102.734 20.9467 101.277 20.516 99.5038 20.516C97.6291 20.516 96.2738 20.858 95.4378 21.542C94.6018 22.226 94.1838 23.0747 94.1838 24.088C94.1838 25.4053 94.7538 26.4693 95.8938 27.28C97.0338 28.0907 99.5798 29.0787 103.532 30.244C107.23 31.3587 110.068 33.0813 112.044 35.412C114.02 37.7427 115.008 40.5293 115.008 43.772C115.008 47.572 113.893 50.4853 111.664 52.512C109.434 54.5387 106.648 55.8307 103.304 56.388V63H96.0838Z" fill="black"/>
</svg>
