<svg width="40" height="40" viewBox="0 0 40 40" fill="none" xmlns="http://www.w3.org/2000/svg">
<rect x="0.5" y="0.5" width="39" height="39" rx="19.5" stroke="#0249D9"/>
<path d="M20 26.793L20.354 27.147L20 27.5L19.646 27.147L20 26.793ZM19.5 11.793C19.5 11.6604 19.5527 11.5332 19.6465 11.4394C19.7402 11.3457 19.8674 11.293 20 11.293C20.1326 11.293 20.2598 11.3457 20.3536 11.4394C20.4473 11.5332 20.5 11.6604 20.5 11.793H19.5ZM26.354 21.147L20.354 27.147L19.646 26.439L25.646 20.439L26.354 21.147ZM19.646 27.147L13.646 21.147L14.354 20.439L20.354 26.439L19.646 27.147ZM19.5 26.793V11.793H20.5V26.793H19.5Z" fill="#0249D9"/>
</svg>
