<svg width="114" height="115" viewBox="0 0 114 115" fill="none" xmlns="http://www.w3.org/2000/svg">
<path d="M31.0488 29.4982V15.4377L55.6342 25.3594V40.5224C55.6342 40.8879 55.7781 41.2384 56.0342 41.4968C56.2904 41.7553 56.6378 41.9005 57 41.9005C57.3623 41.9005 57.7097 41.7553 57.9658 41.4968C58.222 41.2384 58.3659 40.8879 58.3659 40.5224V25.3594L82.9512 15.4377V29.4982C82.9512 29.8637 83.0951 30.2142 83.3513 30.4727C83.6074 30.7311 83.9548 30.8763 84.317 30.8763C84.6793 30.8763 85.0267 30.7311 85.2829 30.4727C85.539 30.2142 85.6829 29.8637 85.6829 29.4982V13.4035C85.6833 13.1281 85.6016 12.8589 85.4484 12.6309C85.2953 12.403 85.0777 12.2267 84.824 12.125L57.5069 1.10098C57.1822 0.966339 56.8178 0.966339 56.4931 1.10098L29.176 12.125C28.9223 12.2267 28.7048 12.4029 28.5516 12.6309C28.3984 12.8589 28.3167 13.1281 28.3171 13.4035V29.4982C28.3171 29.8637 28.461 30.2142 28.7172 30.4727C28.9733 30.7311 29.3207 30.8763 29.6829 30.8763C30.0452 30.8763 30.3926 30.7311 30.6487 30.4727C30.9049 30.2142 31.0488 29.8637 31.0488 29.4982ZM33.36 13.4046L57 3.86237L80.6398 13.4044L57 22.9446L33.36 13.4046ZM82.9512 96.5258V100.663L58.3659 110.586V85.5018C58.3659 85.1363 58.222 84.7858 57.9658 84.5273C57.7097 84.2689 57.3623 84.1237 57 84.1237C56.6378 84.1237 56.2904 84.2689 56.0342 84.5273C55.7781 84.7858 55.6342 85.1363 55.6342 85.5018V110.586L31.0488 100.663V96.5258C31.0488 96.1603 30.9049 95.8098 30.6487 95.5513C30.3926 95.2929 30.0452 95.1477 29.6829 95.1477C29.3207 95.1477 28.9733 95.2929 28.7172 95.5513C28.461 95.8098 28.3171 96.1603 28.3171 96.5258V101.596C28.3167 101.872 28.3984 102.141 28.5516 102.369C28.7048 102.597 28.9224 102.773 29.1761 102.875L56.4931 113.899C56.8178 114.034 57.1822 114.034 57.5069 113.899L84.824 102.875C85.0777 102.773 85.2953 102.597 85.4484 102.369C85.6016 102.141 85.6833 101.872 85.6829 101.596V96.5258C85.6829 96.1603 85.539 95.8098 85.2829 95.5513C85.0267 95.2929 84.6793 95.1477 84.317 95.1477C83.9548 95.1477 83.6074 95.2929 83.3513 95.5513C83.0951 95.8098 82.9512 96.1603 82.9512 96.5258ZM1 46.4758V79.5482C0.99962 79.8236 1.08131 80.0928 1.23449 80.3208C1.38766 80.5488 1.60525 80.7251 1.85898 80.8267L29.176 91.8495C29.5008 91.9841 29.8651 91.9841 30.1898 91.8495L57 81.0312L83.8102 91.8495C84.135 91.9841 84.4992 91.9841 84.824 91.8495L112.141 80.8267C112.395 80.7251 112.612 80.5488 112.765 80.3208C112.919 80.0928 113 79.8236 113 79.5482V46.4758C113 46.2004 112.919 45.9312 112.765 45.7033C112.612 45.4753 112.395 45.2991 112.141 45.1975L84.824 34.1733C84.4992 34.0388 84.135 34.0388 83.8102 34.1733L57 44.9929L30.1898 34.1733C29.865 34.0388 29.5008 34.0388 29.176 34.1733L1.85898 45.1975C1.60527 45.2991 1.38771 45.4753 1.23453 45.7033C1.08136 45.9312 0.999642 46.2004 1 46.4758ZM85.6829 58.4318L110.268 48.5102V78.613L85.6829 88.5368V58.4318ZM60.6772 46.4768L84.3171 36.9347L107.957 46.4768L84.3171 56.017L60.6772 46.4768ZM58.3659 48.51L82.9512 58.4318V88.5368L58.3659 78.613V48.51ZM31.0488 58.4318L55.6342 48.51V78.613L31.0488 88.5368V58.4318ZM6.04306 46.4768L29.6829 36.9347L53.3229 46.4769L29.6829 56.017L6.04306 46.4768ZM3.73171 48.51L28.3171 58.4318V88.5368L3.73171 78.613V48.51Z" fill="white" stroke="#171717" stroke-width="2"/>
</svg>
