<svg width="114" height="114" viewBox="0 0 114 114" fill="none" xmlns="http://www.w3.org/2000/svg">
<path d="M113 46.0732V13.2926C113 13.0193 112.919 12.7522 112.766 12.5258C112.613 12.2994 112.395 12.1242 112.141 12.0229L84.824 1.09605C84.4982 0.967982 84.136 0.967982 83.8102 1.09605L56.4931 12.0229C56.2393 12.1242 56.0217 12.2994 55.8685 12.5258C55.7154 12.7522 55.6338 13.0193 55.6342 13.2926V29.6829C55.6342 30.0451 55.7781 30.3926 56.0343 30.6487C56.2904 30.9048 56.6378 31.0488 57.0001 31.0488C57.3623 31.0488 57.7097 30.9048 57.9659 30.6487C58.222 30.3926 58.3659 30.0451 58.3659 29.6829V15.3116L82.9512 25.1457V54.9812L58.3659 45.1502V40.6097C58.3659 40.2475 58.222 39.9001 57.9659 39.6439C57.7097 39.3878 57.3623 39.2439 57.0001 39.2439C56.6378 39.2439 56.2904 39.3878 56.0343 39.6439C55.7781 39.9001 55.6342 40.2475 55.6342 40.6097V46.0732C55.6338 46.3465 55.7154 46.6136 55.8685 46.84C56.0217 47.0664 56.2393 47.2416 56.4931 47.343L83.8102 58.2698C84.136 58.3979 84.4982 58.3979 84.824 58.2698L112.141 47.343C112.395 47.2416 112.613 47.0665 112.766 46.8401C112.919 46.6137 113 46.3465 113 46.0732ZM107.956 13.2913L84.3171 22.7469L60.6778 13.2913L84.3171 3.83845L107.956 13.2913ZM110.268 45.1502L85.683 54.9812V25.1457L110.268 15.3116V45.1502ZM1 67.9269V100.707C0.999574 100.981 1.08123 101.248 1.23438 101.474C1.38753 101.701 1.60512 101.876 1.85898 101.977L29.1761 112.904C29.5018 113.032 29.864 113.032 30.1898 112.904L57.507 101.977C57.7608 101.876 57.9784 101.701 58.1316 101.474C58.2847 101.248 58.3663 100.981 58.3659 100.707V67.9269C58.3663 67.6535 58.2847 67.3864 58.1315 67.16C57.9784 66.9336 57.7608 66.7584 57.507 66.657L35.6532 57.9176C35.3167 57.7842 34.9409 57.7897 34.6084 57.933C34.2759 58.0763 34.0138 58.3456 33.8796 58.6819C33.7454 59.0181 33.75 59.3939 33.8925 59.7267C34.0349 60.0596 34.3036 60.3224 34.6395 60.4574L53.322 67.9255L29.6829 77.381L6.0439 67.9255L24.7264 60.4574C25.0623 60.3224 25.331 60.0596 25.4735 59.7267C25.6159 59.3939 25.6205 59.0181 25.4863 58.6819C25.3521 58.3456 25.09 58.0763 24.7575 57.933C24.425 57.7897 24.0492 57.7842 23.7126 57.9176L1.85898 66.657C1.60512 66.7584 1.38752 66.9336 1.23438 67.16C1.08123 67.3864 0.999583 67.6535 1 67.9269ZM31.0488 79.7799L55.6342 69.9458V99.7844L31.0488 109.615V79.7799ZM3.73171 69.9458L28.3171 79.7799V109.615L3.73171 99.7844V69.9458ZM31.0488 67.9269V36.5122H70.6585C71.0208 36.5122 71.3682 36.3683 71.6244 36.1122C71.8805 35.856 72.0244 35.5086 72.0244 35.1464C72.0244 34.7841 71.8805 34.4367 71.6244 34.1805C71.3682 33.9244 71.0208 33.7805 70.6585 33.7805H29.6829C29.3208 33.7807 28.9735 33.9247 28.7174 34.1808C28.4613 34.4369 28.3173 34.7842 28.3171 35.1463V67.9269C28.3171 68.2891 28.461 68.6365 28.7172 68.8927C28.9733 69.1488 29.3207 69.2927 29.6829 69.2927C30.0452 69.2927 30.3926 69.1488 30.6488 68.8927C30.9049 68.6365 31.0488 68.2891 31.0488 67.9269Z" fill="white" stroke="#171717" stroke-width="2"/>
</svg>
