<svg width="521" height="534" viewBox="0 0 521 534" fill="none" xmlns="http://www.w3.org/2000/svg">
<g opacity="0.5" clip-path="url(#clip0_44_733)">
<path d="M503.756 210.965L503.719 210.766L486.789 120.188L486.697 120.173L402.427 107.179L402.464 107.378L419.393 197.957L419.486 197.971L503.756 210.965ZM486.567 120.444L503.422 210.624L419.615 197.701L402.76 107.521L486.567 120.444Z" fill="#7AA6FF"/>
<path d="M419.425 198.13L467.149 143.061L467.135 142.989L450.173 52.2376L402.45 107.306L402.463 107.378L419.425 198.13ZM466.862 142.973L419.583 197.528L402.736 107.394L450.016 52.8392L466.862 142.973Z" fill="#7AA6FF"/>
<path d="M402.76 107.521L402.723 107.322L385.794 16.7435L385.701 16.7293L301.431 3.73577L301.468 3.93488L318.398 94.5134L318.49 94.5275L402.76 107.521ZM385.571 17L402.427 107.18L318.62 94.2569L301.765 4.0773L385.571 17Z" fill="#7AA6FF"/>
<path d="M402.642 107.504L450.366 52.4355L450.113 52.3967L365.96 39.4205L318.237 94.4887L318.49 94.5277L402.642 107.504ZM449.823 52.6427L402.544 107.198L318.78 94.2818L366.059 39.7265L449.823 52.6427Z" fill="#7AA6FF"/>
<path d="M456.137 265.759L503.86 210.691L503.607 210.652L419.455 197.676L371.731 252.744L371.984 252.783L456.137 265.759ZM503.317 210.898L456.038 265.453L372.274 252.537L419.554 197.982L503.317 210.898Z" fill="#7AA6FF"/>
<path d="M419.67 198L419.633 197.801L402.704 107.223L402.611 107.209L318.342 94.2143L318.379 94.4132L335.308 184.992L335.401 185.006L419.67 198ZM402.482 107.479L419.337 197.658L335.53 184.735L318.675 94.5558L402.482 107.479Z" fill="#7AA6FF"/>
<path d="M371.924 252.941L419.647 197.873L419.634 197.8L402.672 107.05L354.948 162.118L354.962 162.191L371.924 252.941ZM419.361 197.784L372.082 252.34L355.235 162.207L402.514 107.651L419.361 197.784Z" fill="#7AA6FF"/>
<path d="M373.594 141.162L373.557 140.963L356.627 50.3852L356.534 50.371L272.265 37.3772L272.302 37.5762L289.231 128.154L289.324 128.168L373.594 141.162ZM356.405 50.6417L373.261 140.821L289.453 127.898L272.598 37.7186L356.405 50.6417Z" fill="#7AA6FF"/>
<path d="M324.891 323.459L324.848 323.228L305.158 217.879L305.05 217.863L207.039 202.75L207.082 202.981L226.772 308.33L226.88 308.346L324.891 323.459ZM304.9 218.177L324.503 323.062L227.03 308.032L207.427 203.147L304.9 218.177Z" fill="#7AA6FF"/>
<path d="M226.81 308.531L282.316 244.483L282.3 244.398L262.572 138.849L207.067 202.897L207.083 202.981L226.81 308.531ZM281.982 244.38L226.993 307.831L207.4 203L262.389 139.548L281.982 244.38Z" fill="#7AA6FF"/>
<path d="M227.095 308.38L227.052 308.148L207.362 202.8L207.254 202.784L109.243 187.67L109.286 187.902L128.976 293.251L129.084 293.267L227.095 308.38ZM207.103 203.098L226.707 307.983L129.234 292.952L109.631 188.067L207.103 203.098Z" fill="#7AA6FF"/>
<path d="M171.562 372.281L227.068 308.233L227.052 308.148L207.324 202.599L151.819 266.647L151.835 266.732L171.562 372.281ZM226.735 308.129L171.746 371.581L152.152 266.75L207.141 203.299L226.735 308.129Z" fill="#7AA6FF"/>
<path d="M351.832 312.613L383.746 275.787L383.737 275.738L372.394 215.05L340.48 251.876L340.489 251.924L351.832 312.613ZM383.555 275.728L351.937 312.211L340.671 251.935L372.289 215.452L383.555 275.728Z" fill="#7AA6FF"/>
<path d="M340.608 252.008L372.522 215.181L372.353 215.155L316.077 206.478L284.162 243.304L284.332 243.33L340.608 252.008ZM372.159 215.32L340.542 251.803L284.526 243.166L316.143 206.682L372.159 215.32Z" fill="#7AA6FF"/>
<path d="M376.382 357.839L408.296 321.013L408.127 320.987L351.851 312.309L319.937 349.136L320.106 349.162L376.382 357.839ZM407.933 321.151L376.316 357.635L320.3 348.997L351.917 312.514L407.933 321.151Z" fill="#7AA6FF"/>
<path d="M320.066 349.267L351.98 312.441L351.971 312.392L340.628 251.704L308.713 288.53L308.723 288.579L320.066 349.267ZM351.788 312.382L320.171 348.865L308.905 288.59L340.522 252.106L351.788 312.382Z" fill="#7AA6FF"/>
<path d="M320.23 349.18L320.205 349.047L308.883 288.474L308.821 288.465L252.467 279.775L252.492 279.909L263.813 340.481L263.875 340.491L320.23 349.18ZM308.735 288.646L320.007 348.952L263.962 340.31L252.69 280.004L308.735 288.646Z" fill="#7AA6FF"/>
<path d="M208.542 257.281L240.456 220.455L240.447 220.406L229.104 159.718L197.19 196.544L197.199 196.593L208.542 257.281ZM240.264 220.396L208.647 256.879L197.381 196.603L228.999 160.12L240.264 220.396Z" fill="#7AA6FF"/>
<path d="M288.613 396.426L288.584 396.271L275.417 325.82L275.345 325.809L209.801 315.703L209.83 315.858L222.997 386.308L223.069 386.319L288.613 396.426ZM275.244 326.02L288.354 396.16L223.17 386.109L210.06 315.968L275.244 326.02Z" fill="#7AA6FF"/>
<path d="M223.213 386.341L223.184 386.186L210.017 315.736L209.945 315.724L144.401 305.618L144.43 305.773L157.597 376.223L157.669 376.234L223.213 386.341ZM209.844 315.935L222.954 386.075L157.77 376.024L144.66 305.883L209.844 315.935Z" fill="#7AA6FF"/>
<path d="M186.267 428.973L186.238 428.818L173.071 358.368L172.999 358.357L107.455 348.25L107.484 348.405L120.651 418.855L120.723 418.866L186.267 428.973ZM172.898 358.567L186.008 428.707L120.824 418.656L107.714 348.516L172.898 358.567Z" fill="#7AA6FF"/>
<path d="M187.375 342.134L187.346 341.979L174.179 271.528L174.107 271.517L108.563 261.411L108.592 261.566L121.759 332.016L121.831 332.027L187.375 342.134ZM174.006 271.728L187.116 341.868L121.932 331.817L108.822 261.677L174.006 271.728Z" fill="#7AA6FF"/>
<path d="M136.058 401.171L173.177 358.339L172.98 358.309L107.527 348.216L70.4086 391.048L70.6056 391.078L136.058 401.171ZM172.754 358.5L135.981 400.933L70.8311 390.887L107.604 348.454L172.754 358.5Z" fill="#7AA6FF"/>
<path d="M149.111 471.659L186.23 428.827L186.22 428.771L173.027 358.186L135.908 401.017L135.919 401.074L149.111 471.659ZM186.007 428.758L149.234 471.191L136.131 401.086L172.904 358.654L186.007 428.758Z" fill="#7AA6FF"/>
</g>
<defs>
<clipPath id="clip0_44_733">
<rect width="519.551" height="532.769" fill="white" transform="matrix(1 0 0 -1 0.617966 533.557)"/>
</clipPath>
</defs>
</svg>
