<svg width="160" height="138" viewBox="0 0 160 138" fill="none" xmlns="http://www.w3.org/2000/svg">
<path d="M54.0488 40.4982V26.4377L78.6342 36.3594V51.5224C78.6342 51.8879 78.7781 52.2384 79.0342 52.4968C79.2904 52.7553 79.6378 52.9005 80 52.9005C80.3623 52.9005 80.7097 52.7553 80.9658 52.4968C81.222 52.2384 81.3659 51.8879 81.3659 51.5224V36.3594L105.951 26.4377V40.4982C105.951 40.8637 106.095 41.2142 106.351 41.4727C106.607 41.7311 106.955 41.8763 107.317 41.8763C107.679 41.8763 108.027 41.7311 108.283 41.4727C108.539 41.2142 108.683 40.8637 108.683 40.4982V24.4035C108.683 24.1281 108.602 23.8589 108.448 23.6309C108.295 23.403 108.078 23.2267 107.824 23.125L80.5069 12.101C80.1822 11.9663 79.8178 11.9663 79.4931 12.101L52.176 23.125C51.9223 23.2267 51.7048 23.4029 51.5516 23.6309C51.3984 23.8589 51.3167 24.1281 51.3171 24.4035V40.4982C51.3171 40.8637 51.461 41.2142 51.7172 41.4727C51.9733 41.7311 52.3207 41.8763 52.6829 41.8763C53.0452 41.8763 53.3926 41.7311 53.6487 41.4727C53.9049 41.2142 54.0488 40.8637 54.0488 40.4982ZM56.36 24.4046L80 14.8624L103.64 24.4044L80 33.9446L56.36 24.4046ZM105.951 107.526V111.663L81.3659 121.586V96.5018C81.3659 96.1363 81.222 95.7858 80.9658 95.5273C80.7097 95.2689 80.3623 95.1237 80 95.1237C79.6378 95.1237 79.2904 95.2689 79.0342 95.5273C78.7781 95.7858 78.6342 96.1363 78.6342 96.5018V121.586L54.0488 111.663V107.526C54.0488 107.16 53.9049 106.81 53.6487 106.551C53.3926 106.293 53.0452 106.148 52.6829 106.148C52.3207 106.148 51.9733 106.293 51.7172 106.551C51.461 106.81 51.3171 107.16 51.3171 107.526V112.596C51.3167 112.872 51.3984 113.141 51.5516 113.369C51.7048 113.597 51.9224 113.773 52.1761 113.875L79.4931 124.899C79.8178 125.034 80.1822 125.034 80.5069 124.899L107.824 113.875C108.078 113.773 108.295 113.597 108.448 113.369C108.602 113.141 108.683 112.872 108.683 112.596V107.526C108.683 107.16 108.539 106.81 108.283 106.551C108.027 106.293 107.679 106.148 107.317 106.148C106.955 106.148 106.607 106.293 106.351 106.551C106.095 106.81 105.951 107.16 105.951 107.526ZM24 57.4758V90.5482C23.9996 90.8236 24.0813 91.0928 24.2345 91.3208C24.3877 91.5488 24.6053 91.7251 24.859 91.8267L52.176 102.849C52.5008 102.984 52.8651 102.984 53.1898 102.849L80 92.0312L106.81 102.849C107.135 102.984 107.499 102.984 107.824 102.849L135.141 91.8267C135.395 91.7251 135.612 91.5488 135.765 91.3208C135.919 91.0928 136 90.8236 136 90.5482V57.4758C136 57.2004 135.919 56.9312 135.765 56.7033C135.612 56.4753 135.395 56.2991 135.141 56.1975L107.824 45.1733C107.499 45.0388 107.135 45.0388 106.81 45.1733L80 55.9929L53.1898 45.1733C52.865 45.0388 52.5008 45.0388 52.176 45.1733L24.859 56.1975C24.6053 56.2991 24.3877 56.4753 24.2345 56.7033C24.0814 56.9312 23.9996 57.2004 24 57.4758ZM108.683 69.4318L133.268 59.5102V89.613L108.683 99.5368V69.4318ZM83.6772 57.4768L107.317 47.9347L130.957 57.4768L107.317 67.017L83.6772 57.4768ZM81.3659 59.51L105.951 69.4318V99.5368L81.3659 89.613V59.51ZM54.0488 69.4318L78.6342 59.51V89.613L54.0488 99.5368V69.4318ZM29.0431 57.4768L52.6829 47.9347L76.3229 57.4769L52.6829 67.017L29.0431 57.4768ZM26.7317 59.51L51.3171 69.4318V99.5368L26.7317 89.613V59.51Z" fill="white" stroke="#0249D9" stroke-width="2"/>
</svg>
