<svg width="825" height="846" viewBox="0 0 825 846" fill="none" xmlns="http://www.w3.org/2000/svg">
<g clip-path="url(#clip0_44_800)">
<path d="M798.938 333.742L798.879 333.426L771.997 189.596L771.85 189.573L638.037 168.94L638.095 169.256L664.978 313.087L665.125 313.109L798.938 333.742ZM771.644 190.003L798.409 333.2L665.33 312.679L638.566 169.482L771.644 190.003Z" fill="#7AA6FF"/>
<path d="M665.028 313.36L740.809 225.917L740.787 225.801L713.854 81.6967L638.073 169.14L638.095 169.256L665.028 313.36ZM740.354 225.776L665.279 312.405L638.529 169.281L713.603 82.6521L740.354 225.776Z" fill="#7AA6FF"/>
<path d="M638.566 169.483L638.507 169.167L611.625 25.3355L611.477 25.313L477.665 4.68033L477.724 4.99651L504.606 148.827L504.753 148.85L638.566 169.483ZM611.272 25.7428L638.037 168.941L504.959 148.42L478.195 5.22267L611.272 25.7428Z" fill="#7AA6FF"/>
<path d="M638.379 169.455L714.16 82.0112L713.758 81.9496L580.131 61.3444L504.35 148.788L504.752 148.85L638.379 169.455ZM713.298 82.3401L638.223 168.969L505.213 148.459L580.288 61.8304L713.298 82.3401Z" fill="#7AA6FF"/>
<path d="M723.323 420.751L799.104 333.307L798.702 333.245L665.076 312.64L589.295 400.084L589.697 400.146L723.323 420.751ZM798.242 333.636L723.167 420.265L590.157 399.755L665.233 313.126L798.242 333.636Z" fill="#7AA6FF"/>
<path d="M665.418 313.155L665.359 312.839L638.477 169.008L638.329 168.986L504.517 148.352L504.576 148.668L531.458 292.499L531.605 292.521L665.418 313.155ZM638.124 169.416L664.889 312.612L531.811 292.092L505.046 148.895L638.124 169.416Z" fill="#7AA6FF"/>
<path d="M589.601 400.397L665.382 312.953L665.36 312.838L638.426 168.734L562.645 256.177L562.667 256.292L589.601 400.397ZM664.926 312.812L589.851 399.441L563.1 256.318L638.175 169.689L664.926 312.812Z" fill="#7AA6FF"/>
<path d="M592.253 222.902L592.194 222.586L565.311 78.7555L565.164 78.733L431.351 58.0999L431.41 58.4159L458.292 202.246L458.44 202.268L592.253 222.902ZM564.958 79.1628L591.723 222.359L458.645 201.839L431.88 58.6421L564.958 79.1628Z" fill="#7AA6FF"/>
<path d="M514.917 512.373L514.849 512.005L483.583 344.721L483.412 344.695L327.778 320.697L327.847 321.065L359.112 488.349L359.284 488.375L514.917 512.373ZM483.173 345.194L514.301 511.742L359.523 487.875L328.394 321.328L483.173 345.194Z" fill="#7AA6FF"/>
<path d="M359.173 488.667L447.311 386.965L447.286 386.831L415.96 219.228L327.822 320.93L327.848 321.064L359.173 488.667ZM446.781 386.801L359.464 487.556L328.352 321.094L415.669 220.339L446.781 386.801Z" fill="#7AA6FF"/>
<path d="M359.626 488.428L359.557 488.06L328.291 320.777L328.119 320.751L172.487 296.752L172.556 297.12L203.821 464.404L203.993 464.43L359.626 488.428ZM327.881 321.25L359.01 487.797L204.232 463.93L173.103 297.383L327.881 321.25Z" fill="#7AA6FF"/>
<path d="M271.445 589.897L359.583 488.195L359.557 488.06L328.232 320.458L240.093 422.161L240.119 422.295L271.445 589.897ZM359.053 488.031L271.736 588.786L240.623 422.324L327.94 321.569L359.053 488.031Z" fill="#7AA6FF"/>
<path d="M557.696 495.15L608.374 436.673L608.359 436.596L590.348 340.228L539.67 398.704L539.685 398.782L557.696 495.15ZM608.069 436.579L557.864 494.511L539.975 398.799L590.18 340.867L608.069 436.579Z" fill="#7AA6FF"/>
<path d="M539.874 398.914L590.551 340.437L590.282 340.396L500.921 326.616L450.243 385.093L450.512 385.134L539.874 398.914ZM589.974 340.657L539.769 398.589L450.82 384.873L501.026 326.941L589.974 340.657Z" fill="#7AA6FF"/>
<path d="M596.68 566.965L647.357 508.488L647.088 508.447L557.727 494.668L507.05 553.144L507.318 553.186L596.68 566.965ZM646.78 508.708L596.575 566.64L507.626 552.925L557.832 494.992L646.78 508.708Z" fill="#7AA6FF"/>
<path d="M507.254 553.354L557.932 494.877L557.918 494.8L539.906 398.432L489.228 456.909L489.243 456.986L507.254 553.354ZM557.628 494.783L507.422 552.715L489.533 457.003L539.738 399.071L557.628 494.783Z" fill="#7AA6FF"/>
<path d="M507.515 553.216L507.476 553.005L489.498 456.82L489.4 456.805L399.914 443.007L399.953 443.218L417.931 539.403L418.029 539.418L507.515 553.216ZM489.262 457.092L507.161 552.853L418.167 539.13L400.268 443.369L489.262 457.092Z" fill="#7AA6FF"/>
<path d="M330.164 407.288L380.842 348.811L380.827 348.734L362.816 252.366L312.139 310.843L312.153 310.92L330.164 407.288ZM380.537 348.717L330.332 406.649L312.443 310.937L362.648 253.005L380.537 348.717Z" fill="#7AA6FF"/>
<path d="M457.311 628.237L457.265 627.991L436.357 516.122L436.242 516.105L332.164 500.056L332.21 500.302L353.118 612.172L353.233 612.189L457.311 628.237ZM436.082 516.439L456.899 627.816L353.393 611.855L332.576 500.478L436.082 516.439Z" fill="#7AA6FF"/>
<path d="M353.461 612.223L353.416 611.977L332.507 500.108L332.392 500.091L228.315 484.042L228.361 484.288L249.269 596.157L249.384 596.175L353.461 612.223ZM332.232 500.425L353.05 611.801L249.544 595.841L228.727 484.464L332.232 500.425Z" fill="#7AA6FF"/>
<path d="M294.794 679.919L294.749 679.673L273.84 567.804L273.725 567.787L169.647 551.739L169.693 551.984L190.602 663.853L190.717 663.871L294.794 679.919ZM273.565 568.121L294.383 679.497L190.876 663.536L170.059 552.16L273.565 568.121Z" fill="#7AA6FF"/>
<path d="M296.554 542.026L296.508 541.78L275.599 429.912L275.485 429.894L171.407 413.846L171.453 414.092L192.362 525.961L192.476 525.978L296.554 542.026ZM275.325 430.228L296.142 541.605L192.636 525.644L171.819 414.268L275.325 430.228Z" fill="#7AA6FF"/>
<path d="M215.067 635.772L274.008 567.76L273.695 567.712L169.763 551.685L110.821 619.698L111.134 619.746L215.067 635.772ZM273.337 568.016L214.945 635.394L111.492 619.442L169.885 552.063L273.337 568.016Z" fill="#7AA6FF"/>
<path d="M235.794 747.7L294.736 679.688L294.719 679.598L273.77 567.516L214.829 635.528L214.846 635.618L235.794 747.7ZM294.382 679.578L235.989 746.957L215.183 635.638L273.575 568.259L294.382 679.578Z" fill="#7AA6FF"/>
<path d="M765.855 183.304C764.712 184.623 763.955 186.281 763.68 188.068C763.405 189.856 763.623 191.693 764.309 193.347C764.994 195.002 766.114 196.399 767.529 197.362C768.943 198.325 770.588 198.811 772.255 198.758C773.922 198.706 775.537 198.117 776.895 197.067C778.252 196.016 779.293 194.551 779.883 192.857C780.474 191.162 780.589 189.314 780.214 187.547C779.839 185.78 778.99 184.173 777.775 182.928C776.969 182.102 776.02 181.456 774.985 181.028C773.949 180.6 772.846 180.397 771.739 180.432C770.632 180.467 769.543 180.739 768.533 181.231C767.524 181.724 766.613 182.428 765.855 183.304Z" fill="#0249D9"/>
<path d="M660.672 317.671C658.24 315.18 658.123 311.02 660.411 308.38C662.699 305.74 666.526 305.619 668.958 308.11C671.39 310.602 671.508 314.762 669.219 317.402C666.931 320.042 663.105 320.163 660.672 317.671Z" fill="#0249D9"/>
</g>
<defs>
<clipPath id="clip0_44_800">
<rect width="825.002" height="845.99" fill="white" transform="matrix(1 0 0 -1 0 845.99)"/>
</clipPath>
</defs>
</svg>
